# xmcd
#
# Track frame offsets:
#	150
#	17262
#	28892
#	51042
#	71715
#	97955
#	125142
#	129635
#	159692
#	186855
#	207367
#
# Disc length: 2986
#
# Revision: 1
# Processed by: cddbd v1.5.1PL0 Copyright (c) Steve Scherf et al.
# Submitted via: Audion 2.5.0 (http://www.panic.com/audion/)
# Normalized: r0:TRMNUM
#
DISCID=9b0ba80b
DTITLE=Natural Calamity - Let it Come Down
DYEAR=1900
DGENRE=
TTITLE0=Spirit Catcher
TTITLE1=Inter Zone PT3
TTITLE2=After The Dolphins Gone
TTITLE3=Inter Zone PT4
TTITLE4=Let it Come Down
TTITLE5=Lotus Field
TTITLE6=Foggy Mountain Break Down
TTITLE7=Seagull Woman
TTITLE8=Turn Pike and Freeway
TTITLE9=Indiana Baby Blue
TTITLE10=The Jamming
EXTD=
EXTT0=
EXTT1=
EXTT2=
EXTT3=
EXTT4=
EXTT5=
EXTT6=
EXTT7=
EXTT8=
EXTT9=
EXTT10=
PLAYORDER=
